/* XPM */
static char const* booleanstack_xpm[] = {
"16 16 4 1",
" 	c None",
".	c #000000",
"+	c #FF0000",
"@	c #00FF00",
"                ",
"                ",
"  ............  ",
"  .+++++@@@@@.  ",
"  .+++++@@@@@.  ",
"  .+++++@@@@@.  ",
"  .+++++@@@@@.  ",
"  .+++++@@@@@.  ",
"  .+++++@@@@@.  ",
"  .+++++@@@@@.  ",
"  .+++++@@@@@.  ",
"  .+++++@@@@@.  ",
"  .+++++@@@@@.  ",
"  ............  ",
"                ",
"                "};
