/* XPM */
static char const* directionalstack_xpm[] = {
"16 16 10 1",
" 	c None",
".	c #000000",
"+	c #1C1C1C",
"@	c #383C3C",
"#	c #54585C",
"$	c #74787C",
"%	c #90949C",
"&	c #ACB4BC",
"*	c #C8D0DC",
"=	c #D8E0EC",
"                ",
"                ",
"  ............  ",
"  .+@#$%&*=*&.  ",
"  .+@#$%&*=*&.  ",
"  .+@#$%&*=*&.  ",
"  .+@#$%&*=*&.  ",
"  .+@#$%&*=*&.  ",
"  .+@#$%&*=*&.  ",
"  .+@#$%&*=*&.  ",
"  .+@#$%&*=*&.  ",
"  .+@#$%&*=*&.  ",
"  .+@#$%&*=*&.  ",
"  ............  ",
"                ",
"                "};
