/* XPM */
static char const* pcr_xpm[] = {
"16 16 36 1",
" 	c None",
".	c #000000",
"+	c #100000",
"@	c #101010",
"#	c #212121",
"$	c #292929",
"%	c #313131",
"&	c #424242",
"*	c #4A0000",
"=	c #4A4A4A",
"-	c #525252",
";	c #630000",
">	c #636363",
",	c #6B0000",
"'	c #730000",
")	c #737373",
"!	c #840000",
"~	c #848484",
"{	c #8C8C8C",
"]	c #949494",
"^	c #A50000",
"/	c #A5A5A5",
"(	c #AD0000",
"_	c #ADADAD",
":	c #B50000",
"<	c #B5B5B5",
"[	c #C60000",
"}	c #C6C6C6",
"|	c #CECECE",
"1	c #D60000",
"2	c #D6D6D6",
"3	c #E7E7E7",
"4	c #EF0000",
"5	c #EFEFEF",
"6	c #F70000",
"7	c #FF0000",
"     7    7     ",
"     7    7     ",
"     7    7     ",
"     7    7     ",
"     7    7     ",
"7777777777777777",
"3&{)<73/<{' ~><)",
"3.2}.4$2  , >) &",
"/# ~%;)   6 #}}$",
"=-_/ .}   72@].3",
".:777+[7747!*7+^",
".    (&}/}7$~ >%",
"}2   73}3 1}} 3}",
"     7    7     ",
"     7    7     ",
"     7    7     "};
