/* XPM */
static char const* pcr_16x16_xpm[] = {
"16 6 4 1",
" 	c None",
".	c #0089D2",
"+	c #00BFFF",
"@	c #0053A6",
" ++.@@@@.....++ ",
"+@@@@@@@.+++++.+",
"@@@@@@@@.+++++++",
"@@@@@@@@.+++++++",
".@@@@@@.....++++",
" +.@@@@.....+++ "};
