/* XPM */
static char const* pcr_180x39_xpm[] = {
"180 39 8 1",
" 	c None",
".	c #CDDEEE",
"+	c #80A9D3",
"@	c #4480BD",
"#	c #076AB7",
"$	c #0053A6",
"%	c #0099DF",
"&	c #00BFFF",
"                                                                 .....++++++@@@@@@@@@#$$$$$$$$$$$$$$$$$$$$$$$$$#@@@@@@@@@@++++++......                                              ",
"                                                   ...++++@@@#$$$$$$$$$$$$$$$$$$$$$$$$$$$$$$$$$$$$$#@@@@@@@@@@@@@$$$$$$$$$$$$$$$$$$$$$$$$#@@@@+++...                                ",
"                                         ...++@@@$$$$$$$$$$$$$$$$$$$$$$$$$$$$$$$$$$$$$$$$$$$$$$$$$$+                      .......+++++@@@@$$$$$$$$$$$$#@@++...                      ",
"                                  ..++@@$$$$$$$$$$$$$$$$$$$$$$$$$$$$$$$$$$$$$$$$$$$$$$$$$$$$$$$$$$$+                                         ....+++@@#$$$$$$$$#@@+..               ",
"                            .++@#$$$$$$$$$$$$$$$$$$$$$$$$$$$$$$$$$$$$$$$$$$$$$$$$$$$$$$$$$$$$$$$$$$+                                                     ..++@@#$$$$$$#@++.         ",
"                       .+@#$$$$$$$$$$$$$$$$$$$$$$$$$$$$$$$$$$$$$$$$$$$$$$$$$$$$$$$$$$$$$$$$$$$$$$$$+                                                             ..++@$$$$$$@@+.    ",
"                  ..+@$$$$$$$$$$$$$$$$$$$$$$$$$$$$$$$$$$$$$$$$$$$$$$$$$$$$$$$$$$$$$$$$$$$$$$$$$$$$$+                                                                   ..++@$$$$$@+.",
"               .+@$$$$$$$$$$$$$$$$$$$$$$$$$$$$$$$$$$$$$$$$$$$$$$$$$$$$$$$$$$$$$$$$$$$$$$$$$$$$$$$$$+                                                                         .++#$$#",
"            .+$$$$$$$$$$$$$$$$$$$$$$$$$$$$$$$$$$$$$$$$$$$$$$$$$$$$$$$$$$$$$$$$$$$$$$$$$$$$$$$$$$$$$+                                                                             ..+",
"         .+#$$$$$$$$$$$$$$$$$$$$$$$$$$$$$$$$$$$$$$$#%%%%%%%%#$$$$$$$$$$$%%%%%$$$$$$$#%%%%%%%%##$$$$+                                                                                ",
"       .+$$$$$$$$$$$$$$$$$$$$$$$$$$$$$$$$$$$$$$$$$$#&&&&&&&&&&#$$$$$$$#&&&&&&&%$$$$$#&&&&&&&&&&#$$$+                               ....                                             ",
"     .+$$$$$$$$$$$$$$$$$$$$$$$$$$$$$$$$$$$$$$$$$$$$#&&&&&&&&&&&#$$$$$#&&&&&&&&&#$$$$#&&&&&&&&&&&#$$+                               +$$.                                             ",
"    +#$$$$$$$$$$$$$$$$$$$$$$$$$$$$$$$$$$$$$$$$$$$$$#&&%#####%&&%$$$$#&&&&###%&&&#$$$#&&%$$$$$%&&&$$+                               +$$.                                             ",
"  .+$$$$$$$$$$$$$$$$$$$$$$$$$$$$$$$$$$$$$$$$$$$$$$$#&&%$$$$$#&&&$$$$%&&&$$$$#%&&%$$$#&&%$$$$$$%&&#$+                               +$$.                                             ",
"  @$$$$$$$$$$$$$$$$$$$$$$$$$$$$$$$$$$$$$$$$$$$$$$$$#&&%$$$$$$%&&#$$$%&&#$$$$$#%%%$$$#&&%$$$$$$%&&#$+   .+@@@+.        .+@@@+.     +@$$@+      .+@@@.       +++.+@@+.                ",
" +$$$$$$$$$$$$$$$$$$$$$$$$$$$$$$$$$$$$$$$$$$$$$$$$$#&&%$$$$$$&&&#$$$%&&#$$$$$$$$$$$$#&&%$$$$$$%&&#$+  +$$$$$$$@      +$$$$$$$@.   @$$$$$     .#$$$$$@.     @$$@$$$$@                ",
".$$$$$$$$$$$$$$$$$$$$$$$$$$$$$$$$$$$$$$$$$$$$$$$$$$#&&%$$$$$#&&&$$$$%&&$$$$$$$$$$$$$#&&%$$$$#%&&&$$+  +$$$#$$$$+    .#$$$#$$$#.   +@$$@+    .#$$$$$$$@     @$$$$$$$.                ",
"@$$$$$$$$$$$$$$$$$$$$$$$$$$$$$$$$$$$$$$$$$$$$$$$$$$#&&&%%%%%&&&%$$$$%&&$$$$$$$$$$$$$#&&&&&&&&&&&#$$+   ++   +$$@    .$$@   +#.     +$$.     +$$@. .$$$.    @$$#. +.                 ",
"#$$$$$$$$$$$$$$$$$$$$$$$$$$$$$$$$$$$$$$$$$$$$$$$$$$#&&&&&&&&&&%$$$$$%&&$$$$$$$$$$$$$#&&&&&&&&&&#$$$+         $$@    .$$+           +$$.     @$$.   +$$+    @$$.                     ",
"$$$$$$$$$$$$$$$$$$$$$$$$$$$$$$$$$$$$$$$$$$$$$$$$$$$#&&&&&&&&&%$$$$$$%&&$$$$$$$$$$$$$#&&&%%%&&&#$$$$+   ..++++$$@    .$$$@@++.      +$$.     #$#++++@$$+    @$$                      ",
"#$$$$$$$$$$$$$$$$$$$$$$$$$$$$$$$$$$$$$$$$$$$$$$$$$$#&&%#####$$$$$$$$%&&#$$$$$$$$$$$$#&&%$$$%&&%$$$$+  +#$$$$$$$@     @$$$$$$$@     +$$.     $$$$$$$$$$+    @$$                      ",
"@$$$$$$$$$$$$$$$$$$$$$$$$$$$$$$$$$$$$$$$$$$$$$$$$$$#&&%$$$$$$$$$$$$$%&&#$$$$$$$$$$$$#&&%$$$#&&&$$$$+ .$$$#@@@$$@      +@#$$$$$+    +$$.     $$#@@@@@@@+    @$$                      ",
".$$$$$$$$$$$$$$$$$$$$$$$$$$$$$$$$$$$$$$$$$$$$$$$$$$#&&%$$$$$$$$$$$$$%&&%$$$$$%&&%$$$#&&%$$$$%&&%$$$+ +$$+    $$@          .+$$+    +$$.     @$#            @$$                      ",
" @$$$$$$$$$$$$$$$$$$$$$$$$$$$$$$$$$$$$$$$$$$$$$$$$$#&&%$$$$$$$$$$$$$#&&&%$$$#&&&#$$$#&&%$$$$#&&&#$$+ +$$.   .$$@    .@+    .$$@    +$$.     @$$+   .+      @$$                      ",
" .@$$$$$$$$$$$$$$$$$$$$$$$$$$$$$$$$$$$$$$$$$$$$$$$$#&&%$$$$$$$$$$$$$$%&&&&%&&&&&$$$$#&&%$$$$$%&&%$$+ +$$#+++@$$@   .@$$@+++#$$+    +$$@+    .$$$+++#$@.    @$$                      ",
"  .@$$$$$$$$$$$$$$$$$$$$$$$$$$$$$$$$$$$$$$$$$$$$$$$#&&%$$$$$$$$$$$$$$$&&&&&&&&&#$$$$#&&%$$$$$#&&&#$+  @$$$$$$$$@    +$$$$$$$$@.    .$$$$     @$$$$$$$#.    @$$                      ",
"   .+$$$$$$$$$$$$$$$$$$$$$$$$$$$$$$$$$$$$$$$$$$$$$$#&&%$$$$$$$$$$$$$$$$%&&&&&%$$$$$$#&&%$$$$$$%&&%$+  .@$$$$@$$@     .@$$$$$+.      +#$$      +#$$$$+.     @$$                      ",
"     .@$$$$$$$$$$$$$$$$$$$$$$$$$$$$$$$$$$$$$$$$$$$$$$$$$$$$$$$$$$$$$$$$$$###$$$$$$$$$$$$$$$$$$$$$$$+    ....            ...                     ...                                 ",
"       +#$$$$$$$$$$$$$$$$$$$$$$$$$$$$$$$$$$$$$$$$$$$$$$$$$$$$$$$$$$$$$$$$$$$$$$$$$$$$$$$$$$$$$$$$$$+                                                                                ",
"         .@$$$$$$$$$$$$$$$$$$$$$$$$$$$$$$$$$$$$$$$$$$$$$$$$$$$$$$$$$$$$$$$$$$$$$$$$$#%%#$$$$$$#%%#$+  .++.     .++.     +++.     +++      +++     .+++                              ",
"           .+@$$$$$$$$$$$$$$$$$$$$$$$$$$$$$$$$$$$$$$$$$$$$$$$$$$$$$$$$$$$$$$$$$$$$$$#&&%$$$$$$#&&%$+  +$$+     +$$.     @$$.     $$$      $$@     .$$@                              ",
"              .+@$$$$$$$$$$$$$$$$$$$$$$$$$$$$$$$$$$$$$$$$$$$$$$$$$$$$$$$$$$$$$$$$$$$#&&%$$$$$$#&&%$+  +$$+     +$$.     @$$.     $$$      $$@     .$$@                              ",
"                  .+@$$$$$$$$$$$$$$$$$$$$$$$$$$$$$$$$$$$$$$$$$$$$$$$$$$$$$$$$$$$$$$$$%%#$$$$$$$%%#$+  .++.     .++.     +++.     +++      +++     .+++                              ",
"                      .++#$$$$$$$$$$$$$$$$$$$$$$$$$$$$$$$$$$$$$$$$$$$$$$$$$$$$$$$$$$$$$$$$$$$$$$$$$+                                                                                ",
"                           .++@#$$$$$$$$$$$$$$$$$$$$$$$$$$$$$$$$$$$$$$$$$$$$$$$$$$$$$$$$$$$$$$$$$$$+                                                                                ",
"                                 ..+@@#$$$$$$$$$$$$$$$$$$$$$$$$$$$$$$$$$$$$$$$$$$$$$$$$$$$$$$$$$$$$+                                                                                ",
"                                        ..+++@@#$$$$$$$$$$$$$$$$$$$$$$$$$$$$$$$$$$$$$$$$$$$$$$$$$$$+                                                                                ",
"                                                 ....+++@@@#$$$$$$$$$$$$$$$$$$$$$$$$$$$$$$$$$$$$$$$+                                                                                ",
"                                                               .....+++++@@@@@@@#$$$$$$$$$$$$$$$$$$+                                                                                "};
