/* XPM */
static char const* point_xpm[] = {
"16 16 4 1",
" 	c None",
".	c #000000",
"+	c #F4A460",
"@	c #FFE4B5",
"                ",
"    .....       ",
"    .+@@@.      ",
"    .+@@@@.     ",
"   .+@@@@@@.    ",
"   .+.@.@.@.    ",
"   .+.+.@..@.   ",
"    ....@. ..   ",
"       .@.      ",
"       .+.      ",
"       ...      ",
"    ........... ",
"   .         .  ",
"  .         .   ",
" ...........    ",
"                "};
