/* XPM */
static char const* savelayeras_xpm[] = {
"16 16 5 1",
" 	c None",
".	c #FFFF00",
"+	c #000000",
"@	c #FFFFFF",
"#	c #BEBEBE",
"       .   .   .",
"  ++++++.++.+ . ",
" +++@@@@@.@.+.  ",
" +@+@@@@@@...+  ",
" +++@@......... ",
" +++@@@@@@...+  ",
" +++@@@@@.@.+.  ",
" +++@@@@.@@.++. ",
" ++++++.+++.++ .",
" ++++++++++.++  ",
" +++########++  ",
" +++########++  ",
"  ++########++  ",
"   +++++++++++  ",
"    +++++++++   ",
"                "};
