/* XPM */
static char const* savelayer_xpm[] = {
"16 16 4 1",
" 	c None",
".	c #000000",
"+	c #FFFFFF",
"@	c #BEBEBE",
"                ",
"  ...........   ",
" ...++++++++..  ",
" .+.++++++++..  ",
" ...++++++++..  ",
" ...++++++++..  ",
" ...++++++++..  ",
" ...++++++++..  ",
" .............  ",
" .............  ",
" ...@@@@@@@@..  ",
" ...@@@@@@@@..  ",
"  ..@@@@@@@@..  ",
"   ...........  ",
"    .........   ",
"                "};
