/* XPM */
static char const* closegroup_xpm[] = {
"16 16 5 1",
" 	c None",
".	c #000000",
"+	c #0000FF",
"@	c #00FF00",
"#	c #FF0000",
"                ",
" ..      ...... ",
" ...     .++... ",
" ......  ...... ",
" .@....  .... . ",
" ......  ...  . ",
" .   .......... ",
" .    .... .    ",
" ......... .    ",
"    .........   ",
"    ...  ...    ",
"   ............ ",
"  ... ..###...  ",
" ...  .#####... ",
" ..  ....... .. ",
"                "};
