/* XPM */
static char const* cursor_xpm[] = {
"16 16 5 1",
" 	c None",
".	c #000000",
"+	c #FF0000",
"@	c #4C4C4C",
"#	c #00FF00",
"                ",
"       .        ",
"  ++++ .        ",
"   ++  .   @    ",
"   ++  .  @     ",
"  ++++ . @      ",
"       .@       ",
" .............  ",
"      @.        ",
"     @ . #  #   ",
"    @  .  ##    ",
"   @   .  ##    ",
"       .  #     ",
"       . ##     ",
"                ",
"                "};
