/* XPM */
static char const* data_xpm[] = {
"16 16 5 1",
" 	c None",
".	c #000000",
"+	c #FF0000",
"@	c #00FF00",
"#	c #0000FF",
"                ",
"    ........... ",
"   .+++++++++.  ",
"  .+++++++++.   ",
" ...........    ",
"                ",
"    ........... ",
"   .@@@@@@@@@.  ",
"  .@@@@@@@@@.   ",
" ...........    ",
"                ",
"    ........... ",
"   .#########.  ",
"  .#########.   ",
" ...........    ",
"                "};
