/* XPM */
static char const* dragdrawer_xpm[] = {
"16 16 4 1",
" 	c None",
".	c #000000",
"+	c #BEBEBE",
"@	c #696969",
"                ",
"            ... ",
"            ... ",
"           ...  ",
"           ...  ",
"          ...   ",
"          ...   ",
"         ...    ",
"        ....    ",
"       .++.     ",
"      .++@.     ",
"      .+@..     ",
"     .+ ..      ",
"     .+@.       ",
"   .....        ",
"                "};
