/* XPM */
static char const*fileNewIconXPM[]={
"22 22 40 1",
". c None",
"h c #000000",
"E c #181818",
"g c #242424",
"z c #3a3a3a",
"f c #3d3d3d",
"e c #484848",
"d c #4a4a4a",
"c c #4c4c4c",
"b c #555555",
"a c #676767",
"# c #797979",
"L c #929292",
"s c #959595",
"I c #a6a6a6",
"D c #b5b5b5",
"r c #b6b6b6",
"y c #bbbbbb",
"w c #bcbcbc",
"v c #bfbfbf",
"K c #c1c1c1",
"H c #c5c5c5",
"J c #cccccc",
"q c #d7d7d7",
"C c #dadada",
"p c #dfdfdf",
"x c #e2e2e2",
"u c #e3e3e3",
"l c #e5e5e5",
"G c #e7e7e7",
"j c #e9e9e9",
"o c #ededed",
"F c #efefef",
"k c #f0f0f0",
"B c #f1f1f1",
"n c #f7f7f7",
"t c #f9f9f9",
"A c #fdfdfd",
"m c #fefefe",
"i c #ffffff",
"......................",
"....#abcddefgh........",
"...#iiiiiiiiihh.......",
"...aiiiiiiiiihjh......",
"...biiiiiiiiihklh.....",
"...ciiiiiiiimhnoph....",
"...diiiiiiiiihhhhhh...",
"...diiiiiiiiii.qrsh...",
"...diiiiiiiiiiituvh...",
"...diiiiiiiiiiituwh...",
"...diiiiiiiiiiituwh...",
"...diiiiiiiiiiituwh...",
"...diiiiiiiiiiituwh...",
"...diiiiiiiiiiituwh...",
"...diiiiiiiiiiituwh...",
"...eiiiiiiiiiiitxyh...",
"...ziiAttttttttBCDh...",
"...EAFGuuuuuuuxCHIh...",
"...hpJKwwwwwwwyDILh...",
"....hhhhhhhhhhhhhh....",
"......................",
"......................"};
