/* XPM */
static char const* nominalstack_xpm[] = {
"16 16 8 1",
" 	c None",
".	c #000000",
"+	c #FF0000",
"@	c #FF00FF",
"#	c #0000FF",
"$	c #00FFFF",
"%	c #00FF00",
"&	c #FFFF00",
"                ",
"                ",
"  ............  ",
"  .++@##$%%&&.  ",
"  .++@##$%%&&.  ",
"  .++@##$%%&&.  ",
"  .++@##$%%&&.  ",
"  .++@##$%%&&.  ",
"  .++@##$%%&&.  ",
"  .++@##$%%&&.  ",
"  .++@##$%%&&.  ",
"  .++@##$%%&&.  ",
"  .++@##$%%&&.  ",
"  ............  ",
"                ",
"                "};
