/* XPM */
static char const* ordinalstack_xpm[] = {
"16 16 6 1",
" 	c None",
".	c #000000",
"+	c #000074",
"@	c #8400FC",
"#	c #FC0060",
"$	c #FC9000",
"                ",
"                ",
"  ............  ",
"  .+++@@@###$.  ",
"  .+++@@@###$.  ",
"  .+++@@@###$.  ",
"  .+++@@@###$.  ",
"  .+++@@@###$.  ",
"  .+++@@@###$.  ",
"  .+++@@@###$.  ",
"  .+++@@@###$.  ",
"  .+++@@@###$.  ",
"  .+++@@@###$.  ",
"  ............  ",
"                ",
"                "};
