/* XPM */
static char const* pcr_32x32_xpm[] = {
"32 12 4 1",
" 	c None",
".	c #006EBC",
"+	c #00BFFF",
"@	c #0053A6",
"      +++..@@@@@.......+++      ",
"   ++.@@@@@@@@@@++++++++....+   ",
" +.@@@@@@@@@@@@@++++++++++++.++ ",
"+.@@@@@@@@@@@@@@++++++++++++++++",
".@@@@@@@@@@@@@@@++++++++++++++++",
"@@@@@@@@@@@@@@@@++++++++++++++++",
"@@@@@@@@@@@@@@@@++++++++++++++++",
".@@@@@@@@@@@@@@@++++++++++++++++",
"+@@@@@@@@@@@@@@@++++++++++++++++",
" +@@@@@@@@@@@.++........+++++++ ",
"  +.@@@@@@@@@...........++++++  ",
"    ++..@@@@@@@@++++++++++++    "};
