/* XPM */
static char const* stopanimation_xpm[] = {
"16 16 4 1",
" 	c None",
".	c #FFFFFF",
"+	c #E5E5E5",
"@	c #FF0000",
"                ",
"     ......     ",
"    +@@@@@@+    ",
"   +@@@@@@@@+   ",
"  +@@@@@@@@@@+  ",
" +@@@@@@@@@@@@. ",
" +@..........@. ",
" +@.@@.@.@.@.@. ",
" +@@.@.@.@...@. ",
" +@..@.@...@@@. ",
" +@@@@@@@@@@@@. ",
"  +@@@@@@@@@@+  ",
"   +@@@@@@@@+   ",
"    +@@@@@@+    ",
"     ++++++     ",
"                "};
